<svg xmlns="http://www.w3.org/2000/svg" style="display:none"><symbol id="inst" viewBox="0 0 512 512"><path d="M336 96c21.2 0 41.3 8.4 56.5 23.5S416 154.8 416 176v160c0 21.2-8.4 41.3-23.5 56.5S357.2 416 336 416H176c-21.2 0-41.3-8.4-56.5-23.5S96 357.2 96 336V176c0-21.2 8.4-41.3 23.5-56.5S154.8 96 176 96h160m0-32H176c-61.6 0-112 50.4-112 112v160c0 61.6 50.4 112 112 112h160c61.6 0 112-50.4 112-112V176c0-61.6-50.4-112-112-112z"/><path d="M360 176c-13.3 0-24-10.7-24-24s10.7-24 24-24c13.2 0 24 10.7 24 24s-10.8 24-24 24zm-104 16c35.3 0 64 28.7 64 64s-28.7 64-64 64-64-28.7-64-64 28.7-64 64-64m0-32c-53 0-96 43-96 96s43 96 96 96 96-43 96-96-43-96-96-96z"/></symbol><symbol id="tw" viewBox="0 0 512 512"><path d="M492 109.5c-17.4 7.7-36 12.9-55.6 15.3 20-12 35.4-31 42.6-53.6-18.7 11.1-39.4 19.2-61.5 23.5C399.8 75.8 374.6 64 346.8 64c-53.5 0-96.8 43.4-96.8 96.9 0 7.6.8 15 2.5 22.1-80.5-4-151.9-42.6-199.6-101.3-8.3 14.3-13.1 31-13.1 48.7 0 33.6 17.2 63.3 43.2 80.7-16-.4-31-4.8-44-12.1v1.2c0 47 33.4 86.1 77.7 95-8.1 2.2-16.7 3.4-25.5 3.4-6.2 0-12.3-.6-18.2-1.8 12.3 38.5 48.1 66.5 90.5 67.3-33.1 26-74.9 41.5-120.3 41.5-7.8 0-15.5-.5-23.1-1.4C62.8 432 113.7 448 168.3 448 346.6 448 444 300.3 444 172.2c0-4.2-.1-8.4-.3-12.5C462.6 146 479 129 492 109.5z"/></symbol><symbol id="fb" viewBox="0 0 512 512"><path d="M426.8 64H85.2C73.5 64 64 73.5 64 85.2v341.6c0 11.7 9.5 21.2 21.2 21.2H256V296h-45.9v-56H256v-41.4c0-49.6 34.4-76.6 78.7-76.6 21.2 0 44 1.6 49.3 2.3v51.8h-35.3c-24.1 0-28.7 11.4-28.7 28.2V240h57.4l-7.5 56H320v152h106.8c11.7 0 21.2-9.5 21.2-21.2V85.2c0-11.7-9.5-21.2-21.2-21.2z"/></symbol><symbol id="fq" viewBox="0 0 512 512"><path d="M376.764 32H138.541C105.666 32 96 56.798 96 72.414v379.64c0 17.591 9.425 24.117 14.718 26.267 5.299 2.155 19.916 3.971 28.673-6.168 0 0 112.469-130.895 114.4-132.834 2.921-2.93 2.921-2.93 5.844-2.93h72.767c30.574 0 35.49-21.869 38.684-34.752 2.659-10.789 32.489-163.962 42.452-212.559C421.143 51.993 411.745 32 376.764 32zm-5.678 269.637c2.659-10.789 32.489-163.962 42.452-212.559m-50.846 7.592l-9.999 51.734c-1.195 5.65-8.287 11.595-14.863 11.595h-95.917C231.473 160 224 166.138 224 176.602v13.448c0 10.473 7.519 17.894 17.965 17.894h81.848c7.374 0 14.61 8.109 13.016 16.005-1.602 7.908-9.086 46.569-9.984 50.89-.902 4.328-5.845 11.725-14.611 11.725h-64.269c-11.705 0-15.244 1.533-23.074 11.293-7.837 9.77-78.256 94.592-78.256 94.592-.713.822-1.41.584-1.41-.312V95.896c0-6.684 5.793-14.523 14.479-14.523h191.173c7.035-.001 13.611 6.631 11.815 15.297z"/></symbol><symbol id="arrow-round-back" viewBox="0 0 512 512"><path d="M216.4 163.7c5.1 5 5.1 13.3.1 18.4L155.8 243h231.3c7.1 0 12.9 5.8 12.9 13s-5.8 13-12.9 13H155.8l60.8 60.9c5 5.1 4.9 13.3-.1 18.4-5.1 5-13.2 5-18.3-.1l-82.4-83c-1.1-1.2-2-2.5-2.7-4.1-.7-1.6-1-3.3-1-5 0-3.4 1.3-6.6 3.7-9.1l82.4-83c4.9-5.2 13.1-5.3 18.2-.3z"/></symbol><symbol id="arrow-round-forward" viewBox="0 0 512 512"><path d="M295.6 163.7c-5.1 5-5.1 13.3-.1 18.4l60.8 60.9H124.9c-7.1 0-12.9 5.8-12.9 13s5.8 13 12.9 13h231.3l-60.8 60.9c-5 5.1-4.9 13.3.1 18.4 5.1 5 13.2 5 18.3-.1l82.4-83c1.1-1.2 2-2.5 2.7-4.1.7-1.6 1-3.3 1-5 0-3.4-1.3-6.6-3.7-9.1l-82.4-83c-4.9-5.2-13.1-5.3-18.2-.3z"/></symbol><symbol id="call" viewBox="0 0 512 512"><path d="M436.9 364.8c-14.7-14.7-50-36.8-67.4-45.1-20.2-9.7-27.6-9.5-41.9.8-11.9 8.6-19.6 16.6-33.3 13.6-13.7-2.9-40.7-23.4-66.9-49.5-26.2-26.2-46.6-53.2-49.5-66.9-2.9-13.8 5.1-21.4 13.6-33.3 10.3-14.3 10.6-21.7.8-41.9C184 125 162 89.8 147.2 75.1c-14.7-14.7-18-11.5-26.1-8.6 0 0-12 4.8-23.9 12.7-14.7 9.8-22.9 18-28.7 30.3-5.7 12.3-12.3 35.2 21.3 95 27.1 48.3 53.7 84.9 93.2 124.3l.1.1.1.1c39.5 39.5 76 66.1 124.3 93.2 59.8 33.6 82.7 27 95 21.3 12.3-5.7 20.5-13.9 30.3-28.7 7.9-11.9 12.7-23.9 12.7-23.9 2.9-8.1 6.2-11.4-8.6-26.1z"/></symbol><symbol id="mail" viewBox="0 0 512 512"><path d="M460.6 147.3L353 256.9c-.8.8-.8 2 0 2.8l75.3 80.2c5.1 5.1 5.1 13.3 0 18.4-2.5 2.5-5.9 3.8-9.2 3.8s-6.7-1.3-9.2-3.8l-75-79.9c-.8-.8-2.1-.8-2.9 0L313.7 297c-15.3 15.5-35.6 24.1-57.4 24.2-22.1.1-43.1-9.2-58.6-24.9l-17.6-17.9c-.8-.8-2.1-.8-2.9 0l-75 79.9c-2.5 2.5-5.9 3.8-9.2 3.8s-6.7-1.3-9.2-3.8c-5.1-5.1-5.1-13.3 0-18.4l75.3-80.2c.7-.8.7-2 0-2.8L51.4 147.3c-1.3-1.3-3.4-.4-3.4 1.4V368c0 17.6 14.4 32 32 32h352c17.6 0 32-14.4 32-32V148.7c0-1.8-2.2-2.6-3.4-1.4z"/><path d="M256 295.1c14.8 0 28.7-5.8 39.1-16.4L452 119c-5.5-4.4-12.3-7-19.8-7H79.9c-7.5 0-14.4 2.6-19.8 7L217 278.7c10.3 10.5 24.2 16.4 39 16.4z"/></symbol><symbol id="pin" viewBox="0 0 512 512"><path d="M256 48c-79.5 0-144 59.9-144 133.7 0 104 144 282.3 144 282.3s144-178.3 144-282.3C400 107.9 335.5 48 256 48zm0 190.9c-25.9 0-46.9-21-46.9-46.9s21-46.9 46.9-46.9 46.9 21 46.9 46.9-21 46.9-46.9 46.9z"/></symbol><symbol id="menu" viewBox="0 0 512 512"><path d="M432 176H80c-8.8 0-16-7.2-16-16s7.2-16 16-16h352c8.8 0 16 7.2 16 16s-7.2 16-16 16zm0 96H80c-8.8 0-16-7.2-16-16s7.2-16 16-16h352c8.8 0 16 7.2 16 16s-7.2 16-16 16zm0 96H80c-8.8 0-16-7.2-16-16s7.2-16 16-16h352c8.8 0 16 7.2 16 16s-7.2 16-16 16z"/></symbol><symbol id="close" viewBox="0 0 512 512"><path d="M278.6 256l68.2-68.2c6.2-6.2 6.2-16.4 0-22.6-6.2-6.2-16.4-6.2-22.6 0L256 233.4l-68.2-68.2c-6.2-6.2-16.4-6.2-22.6 0-3.1 3.1-4.7 7.2-4.7 11.3 0 4.1 1.6 8.2 4.7 11.3l68.2 68.2-68.2 68.2c-3.1 3.1-4.7 7.2-4.7 11.3 0 4.1 1.6 8.2 4.7 11.3 6.2 6.2 16.4 6.2 22.6 0l68.2-68.2 68.2 68.2c6.2 6.2 16.4 6.2 22.6 0 6.2-6.2 6.2-16.4 0-22.6L278.6 256z"/></symbol><symbol id="preloader" viewBox="0 0 128 128"><rect width="100%" height="100%"/><g><circle cx="16" cy="64" r="16" fill="#fff"/><circle cx="16" cy="64" r="14.344" fill="#fff" transform="rotate(45 64 64)"/><circle cx="16" cy="64" r="12.531" fill="#fff" transform="rotate(90 64 64)"/><circle cx="16" cy="64" r="10.75" fill="#fff" transform="rotate(135 64 64)"/><circle cx="16" cy="64" r="10.063" fill="#fff" transform="rotate(180 64 64)"/><circle cx="16" cy="64" r="8.063" fill="#fff" transform="rotate(225 64 64)"/><circle cx="16" cy="64" r="6.438" fill="#fff" transform="rotate(270 64 64)"/><circle cx="16" cy="64" r="5.375" fill="#fff" transform="rotate(315 64 64)"/><animateTransform attributeName="transform" type="rotate" values="0 64 64;315 64 64;270 64 64;225 64 64;180 64 64;135 64 64;90 64 64;45 64 64" calcMode="discrete" dur="560ms" repeatCount="indefinite"/></g></symbol></svg>